<mxfile host="65bd71144e">
    <diagram id="BDiXoSVOtzLk_Dv4ZEX8" name="第 1 页">
        <mxGraphModel dx="1204" dy="724" grid="1" gridSize="10" guides="1" tooltips="1" connect="1" arrows="1" fold="1" page="1" pageScale="1" pageWidth="827" pageHeight="1169" math="0" shadow="0">
            <root>
                <mxCell id="0"/>
                <mxCell id="1" parent="0"/>
                <mxCell id="12" value="" style="rounded=0;whiteSpace=wrap;html=1;" vertex="1" parent="1">
                    <mxGeometry x="19" y="880" width="790" height="170" as="geometry"/>
                </mxCell>
                <mxCell id="2" value="Threadsafe Containers" style="rounded=1;whiteSpace=wrap;html=1;" vertex="1" parent="1">
                    <mxGeometry x="140" y="935" width="130" height="60" as="geometry"/>
                </mxCell>
                <mxCell id="7" value="File System&lt;br&gt;(std::filesystem)" style="rounded=1;whiteSpace=wrap;html=1;" vertex="1" parent="1">
                    <mxGeometry x="39" y="935" width="91" height="60" as="geometry"/>
                </mxCell>
                <mxCell id="13" value="Core" style="text;strokeColor=none;fillColor=none;html=1;fontSize=24;fontStyle=1;verticalAlign=middle;align=center;" vertex="1" parent="1">
                    <mxGeometry x="19" y="880" width="100" height="50" as="geometry"/>
                </mxCell>
                <mxCell id="14" value="Log System&lt;br&gt;(spdlog)" style="rounded=1;whiteSpace=wrap;html=1;" vertex="1" parent="1">
                    <mxGeometry x="550" y="935" width="80" height="60" as="geometry"/>
                </mxCell>
                <mxCell id="15" value="Event System" style="rounded=1;whiteSpace=wrap;html=1;" vertex="1" parent="1">
                    <mxGeometry x="640" y="935" width="90" height="60" as="geometry"/>
                </mxCell>
                <mxCell id="19" value="Math Library&lt;br&gt;(glm)" style="rounded=1;whiteSpace=wrap;html=1;" vertex="1" parent="1">
                    <mxGeometry x="280" y="935" width="80" height="60" as="geometry"/>
                </mxCell>
                <mxCell id="20" value="UUID/GUID&lt;br&gt;(stduuid)" style="rounded=1;whiteSpace=wrap;html=1;" vertex="1" parent="1">
                    <mxGeometry x="370" y="935" width="80" height="60" as="geometry"/>
                </mxCell>
                <mxCell id="21" value="Reflection &amp;amp; Serialization&lt;br&gt;(rttr &amp;amp; json)" style="rounded=1;whiteSpace=wrap;html=1;" vertex="1" parent="1">
                    <mxGeometry x="460" y="935" width="80" height="60" as="geometry"/>
                </mxCell>
                <mxCell id="22" value="..." style="text;strokeColor=none;fillColor=none;html=1;fontSize=24;fontStyle=1;verticalAlign=middle;align=center;" vertex="1" parent="1">
                    <mxGeometry x="729" y="1010" width="80" height="40" as="geometry"/>
                </mxCell>
                <mxCell id="25" value="" style="rounded=0;whiteSpace=wrap;html=1;" vertex="1" parent="1">
                    <mxGeometry x="19" y="550" width="790" height="300" as="geometry"/>
                </mxCell>
                <mxCell id="26" value="Window System&lt;br&gt;(GLFW)" style="rounded=1;whiteSpace=wrap;html=1;" vertex="1" parent="1">
                    <mxGeometry x="39" y="605" width="101" height="60" as="geometry"/>
                </mxCell>
                <mxCell id="46" style="edgeStyle=none;html=1;exitX=0.5;exitY=1;exitDx=0;exitDy=0;entryX=0.5;entryY=0;entryDx=0;entryDy=0;" edge="1" parent="1" source="27" target="43">
                    <mxGeometry relative="1" as="geometry"/>
                </mxCell>
                <mxCell id="48" style="edgeStyle=none;html=1;exitX=0.5;exitY=1;exitDx=0;exitDy=0;entryX=0.5;entryY=0;entryDx=0;entryDy=0;" edge="1" parent="1" source="27" target="44">
                    <mxGeometry relative="1" as="geometry"/>
                </mxCell>
                <mxCell id="53" style="edgeStyle=none;html=1;exitX=0.5;exitY=1;exitDx=0;exitDy=0;entryX=0.5;entryY=0;entryDx=0;entryDy=0;" edge="1" parent="1" source="27" target="51">
                    <mxGeometry relative="1" as="geometry"/>
                </mxCell>
                <mxCell id="64" style="edgeStyle=none;html=1;exitX=0.5;exitY=1;exitDx=0;exitDy=0;entryX=0.5;entryY=0;entryDx=0;entryDy=0;" edge="1" parent="1" source="27" target="45">
                    <mxGeometry relative="1" as="geometry"/>
                </mxCell>
                <mxCell id="77" style="edgeStyle=none;html=1;exitX=0.5;exitY=1;exitDx=0;exitDy=0;entryX=0.5;entryY=0;entryDx=0;entryDy=0;fontSize=37;" edge="1" parent="1" source="27" target="76">
                    <mxGeometry relative="1" as="geometry"/>
                </mxCell>
                <mxCell id="27" value="Rendering System&lt;br&gt;(glad)" style="rounded=1;whiteSpace=wrap;html=1;" vertex="1" parent="1">
                    <mxGeometry x="370" y="605" width="111" height="60" as="geometry"/>
                </mxCell>
                <mxCell id="28" value="Function" style="text;strokeColor=none;fillColor=none;html=1;fontSize=24;fontStyle=1;verticalAlign=middle;align=center;" vertex="1" parent="1">
                    <mxGeometry x="19" y="550" width="151" height="50" as="geometry"/>
                </mxCell>
                <mxCell id="32" value="ECS &amp;amp; SceneManager&lt;br&gt;(entt)" style="rounded=1;whiteSpace=wrap;html=1;" vertex="1" parent="1">
                    <mxGeometry x="250" y="605" width="110" height="60" as="geometry"/>
                </mxCell>
                <mxCell id="33" value="Input System" style="rounded=1;whiteSpace=wrap;html=1;" vertex="1" parent="1">
                    <mxGeometry x="150" y="605" width="90" height="60" as="geometry"/>
                </mxCell>
                <mxCell id="35" value="GUI System&lt;br&gt;(imgui)" style="rounded=1;whiteSpace=wrap;html=1;" vertex="1" parent="1">
                    <mxGeometry x="490" y="605" width="90" height="60" as="geometry"/>
                </mxCell>
                <mxCell id="56" style="edgeStyle=none;html=1;exitX=0.5;exitY=1;exitDx=0;exitDy=0;entryX=0.5;entryY=0;entryDx=0;entryDy=0;" edge="1" parent="1" source="37" target="54">
                    <mxGeometry relative="1" as="geometry"/>
                </mxCell>
                <mxCell id="57" style="edgeStyle=none;html=1;exitX=0.5;exitY=1;exitDx=0;exitDy=0;entryX=0.5;entryY=0;entryDx=0;entryDy=0;" edge="1" parent="1" source="37" target="55">
                    <mxGeometry relative="1" as="geometry"/>
                </mxCell>
                <mxCell id="37" value="Physics System&lt;br&gt;(PhysX 5)" style="rounded=1;whiteSpace=wrap;html=1;" vertex="1" parent="1">
                    <mxGeometry x="590" y="605" width="100" height="60" as="geometry"/>
                </mxCell>
                <mxCell id="43" value="Terrain &amp;amp; Grass" style="rounded=1;whiteSpace=wrap;html=1;" vertex="1" parent="1">
                    <mxGeometry x="231" y="740" width="50" height="60" as="geometry"/>
                </mxCell>
                <mxCell id="44" value="Skeletal Animation" style="rounded=1;whiteSpace=wrap;html=1;" vertex="1" parent="1">
                    <mxGeometry x="161" y="740" width="60" height="60" as="geometry"/>
                </mxCell>
                <mxCell id="45" value="Sky" style="rounded=1;whiteSpace=wrap;html=1;" vertex="1" parent="1">
                    <mxGeometry x="351" y="740" width="50" height="60" as="geometry"/>
                </mxCell>
                <mxCell id="51" value="Water" style="rounded=1;whiteSpace=wrap;html=1;" vertex="1" parent="1">
                    <mxGeometry x="291" y="740" width="50" height="60" as="geometry"/>
                </mxCell>
                <mxCell id="54" value="Colliders / Triggers" style="rounded=1;whiteSpace=wrap;html=1;" vertex="1" parent="1">
                    <mxGeometry x="560" y="740" width="70" height="60" as="geometry"/>
                </mxCell>
                <mxCell id="55" value="Rigidbody" style="rounded=1;whiteSpace=wrap;html=1;" vertex="1" parent="1">
                    <mxGeometry x="640" y="740" width="70" height="60" as="geometry"/>
                </mxCell>
                <mxCell id="59" value="" style="rounded=0;whiteSpace=wrap;html=1;" vertex="1" parent="1">
                    <mxGeometry x="19" y="230" width="790" height="300" as="geometry"/>
                </mxCell>
                <mxCell id="63" style="edgeStyle=none;html=1;exitX=0.5;exitY=1;exitDx=0;exitDy=0;entryX=0.5;entryY=0;entryDx=0;entryDy=0;" edge="1" parent="1" source="60" target="62">
                    <mxGeometry relative="1" as="geometry"/>
                </mxCell>
                <mxCell id="60" value="AI System" style="rounded=1;whiteSpace=wrap;html=1;" vertex="1" parent="1">
                    <mxGeometry x="39" y="285" width="81" height="60" as="geometry"/>
                </mxCell>
                <mxCell id="61" value="GamePlay Foundation" style="text;strokeColor=none;fillColor=none;html=1;fontSize=24;fontStyle=1;verticalAlign=middle;align=center;" vertex="1" parent="1">
                    <mxGeometry x="19" y="230" width="301" height="50" as="geometry"/>
                </mxCell>
                <mxCell id="62" value="Path Finding&lt;br&gt;(recastnavigation)" style="rounded=1;whiteSpace=wrap;html=1;" vertex="1" parent="1">
                    <mxGeometry x="39" y="420" width="121" height="60" as="geometry"/>
                </mxCell>
                <mxCell id="65" value="In-Game GUI" style="rounded=1;whiteSpace=wrap;html=1;" vertex="1" parent="1">
                    <mxGeometry x="130" y="285" width="110" height="60" as="geometry"/>
                </mxCell>
                <mxCell id="66" value="Scripting System&lt;br&gt;(sol2 or mono)" style="rounded=1;whiteSpace=wrap;html=1;" vertex="1" parent="1">
                    <mxGeometry x="250" y="285" width="110" height="60" as="geometry"/>
                </mxCell>
                <mxCell id="67" value="Audio System&lt;br&gt;(miniaudio)" style="rounded=1;whiteSpace=wrap;html=1;" vertex="1" parent="1">
                    <mxGeometry x="700" y="605" width="80" height="60" as="geometry"/>
                </mxCell>
                <mxCell id="68" value="..." style="text;strokeColor=none;fillColor=none;html=1;fontSize=24;fontStyle=1;verticalAlign=middle;align=center;" vertex="1" parent="1">
                    <mxGeometry x="729" y="665" width="80" height="40" as="geometry"/>
                </mxCell>
                <mxCell id="69" value="&lt;font style=&quot;font-size: 37px;&quot;&gt;SnowLeopardEngine Architecture&lt;/font&gt;" style="text;strokeColor=none;fillColor=none;html=1;fontSize=24;fontStyle=1;verticalAlign=middle;align=center;" vertex="1" parent="1">
                    <mxGeometry x="106" y="120" width="616" height="50" as="geometry"/>
                </mxCell>
                <mxCell id="81" style="edgeStyle=none;html=1;exitX=0.5;exitY=1;exitDx=0;exitDy=0;entryX=0.5;entryY=0;entryDx=0;entryDy=0;fontSize=37;" edge="1" parent="1" source="70" target="80">
                    <mxGeometry relative="1" as="geometry"/>
                </mxCell>
                <mxCell id="83" style="edgeStyle=none;html=1;exitX=0.5;exitY=1;exitDx=0;exitDy=0;entryX=0.5;entryY=0;entryDx=0;entryDy=0;fontSize=37;" edge="1" parent="1" source="70" target="82">
                    <mxGeometry relative="1" as="geometry"/>
                </mxCell>
                <mxCell id="70" value="Built-in Advanced Camera System" style="rounded=1;whiteSpace=wrap;html=1;" vertex="1" parent="1">
                    <mxGeometry x="370" y="285" width="110" height="60" as="geometry"/>
                </mxCell>
                <mxCell id="71" value="Timer" style="rounded=1;whiteSpace=wrap;html=1;" vertex="1" parent="1">
                    <mxGeometry x="737" y="935" width="53" height="60" as="geometry"/>
                </mxCell>
                <mxCell id="74" value="Large World Loading / Streaming" style="rounded=1;whiteSpace=wrap;html=1;" vertex="1" parent="1">
                    <mxGeometry x="490" y="285" width="190" height="60" as="geometry"/>
                </mxCell>
                <mxCell id="76" value="Particles &amp;amp; VFX" style="rounded=1;whiteSpace=wrap;html=1;" vertex="1" parent="1">
                    <mxGeometry x="411" y="740" width="70" height="60" as="geometry"/>
                </mxCell>
                <mxCell id="78" value="..." style="text;strokeColor=none;fillColor=none;html=1;fontSize=24;fontStyle=1;verticalAlign=middle;align=center;" vertex="1" parent="1">
                    <mxGeometry x="700" y="295" width="80" height="40" as="geometry"/>
                </mxCell>
                <mxCell id="80" value="Avoid Obstacles" style="rounded=1;whiteSpace=wrap;html=1;" vertex="1" parent="1">
                    <mxGeometry x="320" y="420" width="100" height="60" as="geometry"/>
                </mxCell>
                <mxCell id="82" value="Zoom In/Out" style="rounded=1;whiteSpace=wrap;html=1;" vertex="1" parent="1">
                    <mxGeometry x="430" y="420" width="100" height="60" as="geometry"/>
                </mxCell>
            </root>
        </mxGraphModel>
    </diagram>
</mxfile>